<svg xmlns="http://www.w3.org/2000/svg" width="1000" height="1000" viewBox="0 0 1000 1000">
  <rect width="1000" height="1000" fill="#FFFFFF"/>
  <path data-key="body" d="M 435,40 L 435,232.792215682 A 275,275 0 0 0 225,500 A 275,275 0 0 0 435,767.207784318 L 435,960 L 565,960 L 565,767.207784318 A 275,275 0 0 0 775,500 A 275,275 0 0 0 565,232.792215682 L 565,40 L 435,40 Z" fill="#111111"/>
  <path data-key="viewport-left-void" d="M 435,662.480768093 L 435,337.519231907 A 175,175 0 0 0 325,500 A 175,175 0 0 0 435,662.480768093 Z" fill="#FFFFFF"/>
  <path data-key="viewport-right-void" d="M 565,337.519231907 L 565,662.480768093 A 175,175 0 0 0 675,500 A 175,175 0 0 0 565,337.519231907 Z" fill="#FFFFFF"/>
</svg>
